# Blender v2.81 (sub 16) OBJ File: 'Hovercraft.blend'
# www.blender.org
mtllib HovercraftBlade.mtl
o Cylinder
v 0.000000 0.200000 -0.040000
v 0.000000 0.200000 0.040000
v 0.039018 0.196157 -0.040000
v 0.039018 0.196157 0.040000
v 0.076537 0.184776 -0.040000
v 0.076537 0.184776 0.040000
v 0.111114 0.166294 -0.040000
v 0.111114 0.166294 0.040000
v 0.141421 0.141421 -0.040000
v 0.141421 0.141421 0.040000
v 0.166294 0.111114 -0.040000
v 0.166294 0.111114 0.040000
v 0.184776 0.076537 -0.040000
v 0.184776 0.076537 0.040000
v 0.196157 0.039018 -0.040000
v 0.196157 0.039018 0.040000
v 0.200000 0.000000 -0.040000
v 0.200000 0.000000 0.040000
v 0.196157 -0.039018 -0.040000
v 0.196157 -0.039018 0.040000
v 0.184776 -0.076537 -0.040000
v 0.184776 -0.076537 0.040000
v 0.166294 -0.111114 -0.040000
v 0.166294 -0.111114 0.040000
v 0.141421 -0.141421 -0.040000
v 0.141421 -0.141421 0.040000
v 0.111114 -0.166294 -0.040000
v 0.111114 -0.166294 0.040000
v 0.076537 -0.184776 -0.040000
v 0.076537 -0.184776 0.040000
v 0.039018 -0.196157 -0.040000
v 0.039018 -0.196157 0.040000
v -0.000000 -0.200000 -0.040000
v -0.000000 -0.200000 0.040000
v -0.039018 -0.196157 -0.040000
v -0.039018 -0.196157 0.040000
v -0.076537 -0.184776 -0.040000
v -0.076537 -0.184776 0.040000
v -0.111114 -0.166294 -0.040000
v -0.111114 -0.166294 0.040000
v -0.141421 -0.141421 -0.040000
v -0.141421 -0.141421 0.040000
v -0.166294 -0.111114 -0.040000
v -0.166294 -0.111114 0.040000
v -0.184776 -0.076537 -0.040000
v -0.184776 -0.076537 0.040000
v -0.196157 -0.039018 -0.040000
v -0.196157 -0.039018 0.040000
v -0.200000 0.000000 -0.040000
v -0.200000 0.000000 0.040000
v -0.196157 0.039018 -0.040000
v -0.196157 0.039018 0.040000
v -0.184776 0.076537 -0.040000
v -0.184776 0.076537 0.040000
v -0.166294 0.111114 -0.040000
v -0.166294 0.111114 0.040000
v -0.141421 0.141422 -0.040000
v -0.141421 0.141422 0.040000
v -0.111114 0.166294 -0.040000
v -0.111114 0.166294 0.040000
v -0.076536 0.184776 -0.040000
v -0.076536 0.184776 0.040000
v -0.039018 0.196157 -0.040000
v -0.039018 0.196157 0.040000
v -0.000000 1.019999 -0.203998
v -0.000000 1.019999 0.204002
v 0.566681 0.848098 0.204002
v 0.566681 0.848098 -0.203998
v 0.721249 0.721248 -0.203998
v 0.721249 0.721248 0.204002
v 1.000401 0.198991 0.204002
v 1.000401 0.198991 -0.203998
v 1.020000 -0.000001 -0.203998
v 1.020000 -0.000001 0.204002
v 0.848099 -0.566682 0.204002
v 0.848099 -0.566682 -0.203998
v 0.721249 -0.721250 -0.203998
v 0.721249 -0.721250 0.204002
v 0.198992 -1.000402 0.204002
v 0.198992 -1.000402 -0.203998
v -0.000000 -1.020001 -0.203998
v -0.000000 -1.020001 0.204002
v -0.566682 -0.848099 0.204002
v -0.566682 -0.848099 -0.203998
v -0.721249 -0.721249 -0.203998
v -0.721249 -0.721249 0.204002
v -1.000401 -0.198992 0.204002
v -1.000401 -0.198992 -0.203998
v -1.020000 0.000000 -0.203998
v -1.020000 0.000000 0.204002
v -0.848098 0.566682 0.204002
v -0.848098 0.566682 -0.203998
v -0.721248 0.721249 -0.203998
v -0.721248 0.721249 0.204002
v -0.198991 1.000400 0.204002
v -0.198991 1.000400 -0.203998
vt 1.000000 1.000000
vt 0.968750 0.500000
vt 1.000000 0.500000
vt 0.968750 1.000000
vt 0.937500 0.500000
vt 0.937500 1.000000
vt 0.906250 0.500000
vt 0.031250 1.000000
vt 0.031250 0.500000
vt 0.031250 0.500000
vt 0.875000 1.000000
vt 0.843750 0.500000
vt 0.875000 0.500000
vt 0.843750 1.000000
vt 0.812500 0.500000
vt 0.812500 1.000000
vt 0.781250 0.500000
vt 0.875000 0.500000
vt 0.875000 1.000000
vt 0.750000 1.000000
vt 0.718750 0.500000
vt 0.750000 0.500000
vt 0.718750 1.000000
vt 0.687500 0.500000
vt 0.687500 1.000000
vt 0.656250 0.500000
vt 0.419706 0.419706
vt 0.383337 0.449553
vt 0.383337 0.449553
vt 0.625000 1.000000
vt 0.593750 0.500000
vt 0.625000 0.500000
vt 0.593750 1.000000
vt 0.562500 0.500000
vt 0.562500 1.000000
vt 0.531250 0.500000
vt 0.750000 0.500000
vt 0.750000 1.000000
vt 0.500000 1.000000
vt 0.468750 0.500000
vt 0.500000 0.500000
vt 0.468750 1.000000
vt 0.437500 0.500000
vt 0.437500 1.000000
vt 0.406250 0.500000
vt 0.919706 0.419706
vt 0.883337 0.449553
vt 0.919706 0.419706
vt 0.375000 1.000000
vt 0.343750 0.500000
vt 0.375000 0.500000
vt 0.343750 1.000000
vt 0.312500 0.500000
vt 0.312500 1.000000
vt 0.281250 0.500000
vt 0.490000 0.250000
vt 0.485388 0.296822
vt 0.485388 0.296822
vt 0.250000 1.000000
vt 0.218750 0.500000
vt 0.250000 0.500000
vt 0.218750 1.000000
vt 0.187500 0.500000
vt 0.187500 1.000000
vt 0.156250 0.500000
vt 0.625000 0.500000
vt 0.625000 1.000000
vt 0.125000 1.000000
vt 0.093750 0.500000
vt 0.125000 0.500000
vt 0.093750 1.000000
vt 0.062500 0.500000
vt 0.028269 0.341844
vt 0.158156 0.028269
vt 0.471731 0.158156
vt 0.062500 1.000000
vt 0.906250 1.000000
vt 0.906250 0.500000
vt 0.985388 0.296822
vt 0.796822 0.014612
vt 0.514611 0.203179
vt 0.906250 1.000000
vt 0.781250 1.000000
vt 0.781250 0.500000
vt 0.656250 1.000000
vt 0.656250 0.500000
vt 0.531250 1.000000
vt 0.500000 0.500000
vt 0.531250 0.500000
vt 0.406250 1.000000
vt 0.375000 0.500000
vt 0.406250 0.500000
vt 0.281250 1.000000
vt 0.250000 0.500000
vt 0.281250 0.500000
vt 0.156250 1.000000
vt 0.125000 0.500000
vt 0.156250 0.500000
vt 0.031250 1.000000
vt 0.000000 0.500000
vt 0.750000 0.490000
vt 0.703179 0.485389
vt 0.750000 0.490000
vt 0.156250 1.000000
vt 0.250000 0.490000
vt 0.203179 0.485389
vt 0.203179 0.485389
vt 0.550447 0.383337
vt 0.580295 0.419706
vt 0.580295 0.419706
vt 0.281250 1.000000
vt 1.000000 0.500000
vt 1.000000 1.000000
vt 0.050447 0.383337
vt 0.080295 0.419706
vt 0.050447 0.383337
vt 0.510000 0.250000
vt 0.510000 0.250000
vt 0.406250 1.000000
vt 0.125000 1.000000
vt 0.014611 0.203179
vt 0.010000 0.250000
vt 0.014611 0.203179
vt 0.616663 0.050447
vt 0.580294 0.080294
vt 0.580294 0.080294
vt 0.531250 1.000000
vt 0.250000 1.000000
vt 0.080294 0.080294
vt 0.116663 0.050447
vt 0.116663 0.050447
vt 0.750000 0.010000
vt 0.750000 0.010000
vt 0.656250 1.000000
vt 0.375000 1.000000
vt 0.250000 0.010000
vt 0.296822 0.014612
vt 0.296822 0.014612
vt 0.919706 0.080294
vt 0.949553 0.116663
vt 0.919706 0.080294
vt 0.781250 1.000000
vt 0.500000 1.000000
vt 0.419706 0.080294
vt 0.449553 0.116663
vt 0.449553 0.116663
vt 0.990000 0.250000
vt 0.985388 0.296822
vt 0.990000 0.250000
vt 0.419706 0.419706
vt 0.883337 0.449553
vt 0.490000 0.250000
vt 0.341844 0.471731
vt 0.296822 0.485388
vt 0.158156 0.471731
vt 0.116663 0.449553
vt 0.080295 0.419706
vt 0.014612 0.296822
vt 0.010000 0.250000
vt 0.028269 0.158156
vt 0.050447 0.116663
vt 0.203178 0.014612
vt 0.341844 0.028269
vt 0.383337 0.050447
vt 0.485388 0.203178
vt 0.471731 0.341844
vt 0.449553 0.383337
vt 0.703179 0.485389
vt 0.796822 0.485388
vt 0.841844 0.471731
vt 0.949553 0.383337
vt 0.971731 0.341844
vt 0.985388 0.203178
vt 0.971731 0.158156
vt 0.949553 0.116663
vt 0.883337 0.050447
vt 0.841844 0.028269
vt 0.703178 0.014612
vt 0.658156 0.028269
vt 0.550447 0.116663
vt 0.528269 0.158156
vt 0.514612 0.296822
vt 0.528269 0.341844
vt 0.616663 0.449553
vt 0.658156 0.471731
vt 0.000000 1.000000
vt 0.250000 0.490000
vt 0.550447 0.383337
vt 0.514611 0.203179
vt 0.616663 0.050447
vt 0.080294 0.080294
vt 0.796822 0.014612
vt 0.250000 0.010000
vt 0.419706 0.080294
vn 0.0980 0.9952 0.0000
vn 0.2903 0.9569 0.0000
vn 0.4714 0.8819 0.0000
vn -0.9808 -0.1951 0.0000
vn 0.7730 0.6344 0.0000
vn 0.8819 0.4714 0.0000
vn 0.9569 0.2903 0.0000
vn 0.7071 -0.7071 0.0000
vn 0.9952 -0.0980 -0.0000
vn 0.9569 -0.2903 0.0000
vn 0.8819 -0.4714 0.0000
vn -0.1250 -0.1523 0.9804
vn 0.6344 -0.7730 0.0000
vn 0.4714 -0.8819 0.0000
vn 0.2903 -0.9569 0.0000
vn -0.0000 -1.0000 -0.0000
vn -0.0980 -0.9952 0.0000
vn -0.2903 -0.9569 0.0000
vn -0.4714 -0.8819 0.0000
vn -0.1250 -0.1523 -0.9804
vn -0.7730 -0.6344 0.0000
vn -0.8819 -0.4714 0.0000
vn -0.9569 -0.2903 0.0000
vn -0.1961 -0.0193 0.9804
vn -0.9952 0.0980 0.0000
vn -0.9569 0.2903 0.0000
vn -0.8819 0.4714 0.0000
vn -0.7071 -0.7071 0.0000
vn -0.6344 0.7730 0.0000
vn -0.4714 0.8819 0.0000
vn -0.0000 -0.0000 1.0000
vn -0.2903 0.9569 0.0000
vn -0.8315 0.5556 0.0000
vn 0.0000 0.0000 -1.0000
vn 0.6344 0.7730 0.0000
vn 0.9952 0.0980 0.0000
vn 0.7730 -0.6344 0.0000
vn 0.0980 -0.9952 0.0000
vn -0.6344 -0.7730 0.0000
vn -0.9952 -0.0980 -0.0000
vn -0.7730 0.6344 0.0000
vn -0.0980 0.9952 0.0000
vn 0.0193 -0.1961 -0.9804
vn -0.5556 -0.8315 0.0000
vn 0.0193 -0.1961 0.9804
vn 0.1523 -0.1250 -0.9804
vn 0.1951 -0.9808 0.0000
vn 1.0000 0.0000 0.0000
vn 0.1523 -0.1250 0.9804
vn 0.1961 0.0193 -0.9804
vn 0.8315 -0.5556 0.0000
vn 0.7071 0.7071 0.0000
vn 0.1961 0.0193 0.9804
vn 0.1250 0.1523 -0.9804
vn 0.9808 0.1951 0.0000
vn 0.0000 1.0000 0.0000
vn 0.1250 0.1523 0.9804
vn -0.0193 0.1961 -0.9804
vn 0.5556 0.8315 0.0000
vn -0.7071 0.7071 0.0000
vn -0.0193 0.1961 0.9804
vn -0.1523 0.1250 -0.9804
vn -0.1951 0.9808 0.0000
vn -1.0000 0.0000 0.0000
vn -0.1523 0.1250 0.9804
vn -0.1961 -0.0193 -0.9804
usemtl None
s off
f 2/1/1 3/2/1 1/3/1
f 4/4/2 5/5/2 3/2/2
f 6/6/3 7/7/3 5/5/3
f 64/8/4 96/9/4 63/10/4
f 10/11/5 11/12/5 9/13/5
f 12/14/6 13/15/6 11/12/6
f 14/16/7 15/17/7 13/15/7
f 10/11/8 69/18/8 70/19/8
f 18/20/9 19/21/9 17/22/9
f 20/23/10 21/24/10 19/21/10
f 22/25/11 23/26/11 21/24/11
f 10/27/12 67/28/12 8/29/12
f 26/30/13 27/31/13 25/32/13
f 28/33/14 29/34/14 27/31/14
f 30/35/15 31/36/15 29/34/15
f 18/20/16 73/37/16 74/38/16
f 34/39/17 35/40/17 33/41/17
f 36/42/18 37/43/18 35/40/18
f 38/44/19 39/45/19 37/43/19
f 9/46/20 68/47/20 69/48/20
f 42/49/21 43/50/21 41/51/21
f 44/52/22 45/53/22 43/50/22
f 46/54/23 47/55/23 45/53/23
f 18/56/24 71/57/24 16/58/24
f 50/59/25 51/60/25 49/61/25
f 52/62/26 53/63/26 51/60/26
f 54/64/27 55/65/27 53/63/27
f 26/30/28 77/66/28 78/67/28
f 58/68/29 59/69/29 57/70/29
f 60/71/30 61/72/30 59/69/30
f 54/73/31 38/74/31 22/75/31
f 62/76/32 63/10/32 61/72/32
f 8/77/33 68/78/33 7/7/33
f 15/79/34 31/80/34 47/81/34
f 67/82/35 69/18/35 68/78/35
f 71/83/36 73/37/36 72/84/36
f 75/85/37 77/66/37 76/86/37
f 79/87/38 81/88/38 80/89/38
f 83/90/39 85/91/39 84/92/39
f 87/93/40 89/94/40 88/95/40
f 91/96/41 93/97/41 92/98/41
f 95/99/42 65/100/42 96/9/42
f 1/101/43 96/102/43 65/103/43
f 56/104/44 92/98/44 55/65/44
f 2/105/45 95/106/45 64/107/45
f 55/108/46 93/109/46 57/110/46
f 48/111/47 88/95/47 47/55/47
f 2/1/48 65/112/48 66/113/48
f 56/114/49 94/115/49 91/116/49
f 47/81/50 89/117/50 49/118/50
f 40/119/51 84/92/51 39/45/51
f 58/68/52 93/97/52 94/120/52
f 48/121/53 90/122/53 87/123/53
f 39/124/54 85/125/54 41/126/54
f 32/127/55 80/89/55 31/36/55
f 50/59/56 89/94/56 90/128/56
f 42/129/57 83/130/57 40/131/57
f 31/80/58 81/132/58 33/133/58
f 24/134/59 76/86/59 23/26/59
f 42/49/60 85/91/60 86/135/60
f 34/136/61 79/137/61 32/138/61
f 25/139/62 76/140/62 77/141/62
f 16/142/63 72/84/63 15/17/63
f 34/39/64 81/88/64 82/143/64
f 26/144/65 75/145/65 24/146/65
f 17/147/66 72/148/66 73/149/66
f 2/1/1 4/4/1 3/2/1
f 4/4/2 6/6/2 5/5/2
f 6/6/3 8/77/3 7/7/3
f 64/8/4 95/99/4 96/9/4
f 10/11/5 12/14/5 11/12/5
f 12/14/6 14/16/6 13/15/6
f 14/16/7 16/142/7 15/17/7
f 10/11/8 9/13/8 69/18/8
f 18/20/9 20/23/9 19/21/9
f 20/23/10 22/25/10 21/24/10
f 22/25/11 24/134/11 23/26/11
f 10/27/12 70/150/12 67/28/12
f 26/30/13 28/33/13 27/31/13
f 28/33/14 30/35/14 29/34/14
f 30/35/15 32/127/15 31/36/15
f 18/20/16 17/22/16 73/37/16
f 34/39/17 36/42/17 35/40/17
f 36/42/18 38/44/18 37/43/18
f 38/44/19 40/119/19 39/45/19
f 9/46/20 7/151/20 68/47/20
f 42/49/21 44/52/21 43/50/21
f 44/52/22 46/54/22 45/53/22
f 46/54/23 48/111/23 47/55/23
f 18/56/24 74/152/24 71/57/24
f 50/59/25 52/62/25 51/60/25
f 52/62/26 54/64/26 53/63/26
f 54/64/27 56/104/27 55/65/27
f 26/30/28 25/32/28 77/66/28
f 58/68/29 60/71/29 59/69/29
f 60/71/30 62/76/30 61/72/30
f 6/153/31 4/154/31 2/105/31
f 2/105/31 64/107/31 6/153/31
f 64/107/31 62/155/31 6/153/31
f 62/155/31 60/156/31 58/157/31
f 58/157/31 56/114/31 54/73/31
f 54/73/31 52/158/31 50/159/31
f 50/159/31 48/121/31 54/73/31
f 48/121/31 46/160/31 54/73/31
f 46/160/31 44/161/31 38/74/31
f 44/161/31 42/129/31 38/74/31
f 42/129/31 40/131/31 38/74/31
f 38/74/31 36/162/31 34/136/31
f 34/136/31 32/138/31 30/163/31
f 30/163/31 28/164/31 26/144/31
f 26/144/31 24/146/31 22/75/31
f 22/75/31 20/165/31 18/56/31
f 18/56/31 16/58/31 22/75/31
f 16/58/31 14/166/31 22/75/31
f 14/166/31 12/167/31 10/27/31
f 10/27/31 8/29/31 6/153/31
f 62/155/31 58/157/31 6/153/31
f 58/157/31 54/73/31 6/153/31
f 38/74/31 34/136/31 22/75/31
f 34/136/31 30/163/31 22/75/31
f 30/163/31 26/144/31 22/75/31
f 14/166/31 10/27/31 22/75/31
f 10/27/31 6/153/31 22/75/31
f 54/73/31 46/160/31 38/74/31
f 6/153/31 54/73/31 22/75/31
f 62/76/32 64/8/32 63/10/32
f 8/77/33 67/82/33 68/78/33
f 63/168/34 1/101/34 3/169/34
f 3/169/34 5/170/34 7/151/34
f 7/151/34 9/46/34 11/171/34
f 11/171/34 13/172/34 7/151/34
f 13/172/34 15/79/34 7/151/34
f 15/79/34 17/147/34 19/173/34
f 19/173/34 21/174/34 15/79/34
f 21/174/34 23/175/34 15/79/34
f 23/175/34 25/139/34 31/80/34
f 25/139/34 27/176/34 31/80/34
f 27/176/34 29/177/34 31/80/34
f 31/80/34 33/133/34 35/178/34
f 35/178/34 37/179/34 39/124/34
f 39/124/34 41/126/34 43/180/34
f 43/180/34 45/181/34 47/81/34
f 47/81/34 49/118/34 51/182/34
f 51/182/34 53/183/34 55/108/34
f 55/108/34 57/110/34 63/168/34
f 57/110/34 59/184/34 63/168/34
f 59/184/34 61/185/34 63/168/34
f 63/168/34 3/169/34 7/151/34
f 31/80/34 35/178/34 47/81/34
f 35/178/34 39/124/34 47/81/34
f 39/124/34 43/180/34 47/81/34
f 47/81/34 51/182/34 63/168/34
f 51/182/34 55/108/34 63/168/34
f 63/168/34 7/151/34 15/79/34
f 15/79/34 23/175/34 31/80/34
f 63/168/34 15/79/34 47/81/34
f 67/82/35 70/19/35 69/18/35
f 71/83/36 74/38/36 73/37/36
f 75/85/37 78/67/37 77/66/37
f 79/87/38 82/143/38 81/88/38
f 83/90/39 86/135/39 85/91/39
f 87/93/40 90/128/40 89/94/40
f 91/96/41 94/120/41 93/97/41
f 95/99/42 66/186/42 65/100/42
f 1/101/43 63/168/43 96/102/43
f 56/104/44 91/96/44 92/98/44
f 2/105/45 66/187/45 95/106/45
f 55/108/46 92/188/46 93/109/46
f 48/111/47 87/93/47 88/95/47
f 2/1/48 1/3/48 65/112/48
f 56/114/49 58/157/49 94/115/49
f 47/81/50 88/189/50 89/117/50
f 40/119/51 83/90/51 84/92/51
f 58/68/52 57/70/52 93/97/52
f 48/121/53 50/159/53 90/122/53
f 39/124/54 84/190/54 85/125/54
f 32/127/55 79/87/55 80/89/55
f 50/59/56 49/61/56 89/94/56
f 42/129/57 86/191/57 83/130/57
f 31/80/58 80/192/58 81/132/58
f 24/134/59 75/85/59 76/86/59
f 42/49/60 41/51/60 85/91/60
f 34/136/61 82/193/61 79/137/61
f 25/139/62 23/175/62 76/140/62
f 16/142/63 71/83/63 72/84/63
f 34/39/64 33/41/64 81/88/64
f 26/144/65 78/194/65 75/145/65
f 17/147/66 15/79/66 72/148/66
