# Blender v2.81 (sub 16) OBJ File: 'Skybox.blend'
# www.blender.org
mtllib Skybox.mtl
o Cube_Cube.001
v -1.000000 -1.000000 1.000000
v -1.000000 1.000000 1.000000
v -1.000000 -1.000000 -1.000000
v -1.000000 1.000000 -1.000000
v 1.000000 -1.000000 1.000000
v 1.000000 1.000000 1.000000
v 1.000000 -1.000000 -1.000000
v 1.000000 1.000000 -1.000000
vt 0.648810 0.017857
vt 0.351191 0.315476
vt 0.351191 0.017857
vt 0.017857 0.648810
vt 0.315476 0.351190
vt 0.315476 0.648809
vt 0.315476 0.315476
vt 0.017857 0.017857
vt 0.315476 0.017857
vt 0.351191 0.648809
vt 0.648810 0.351190
vt 0.648810 0.648810
vt 0.684524 0.315476
vt 0.982143 0.017857
vt 0.982143 0.315476
vt 0.315476 0.982143
vt 0.017857 0.684524
vt 0.315476 0.684524
vt 0.648810 0.315476
vt 0.017857 0.351191
vt 0.017857 0.315476
vt 0.351191 0.351190
vt 0.684524 0.017857
vt 0.017857 0.982143
vn 1.0000 0.0000 0.0000
vn 0.0000 0.0000 1.0000
vn -1.0000 0.0000 0.0000
vn 0.0000 0.0000 -1.0000
vn 0.0000 1.0000 0.0000
vn 0.0000 -1.0000 0.0000
usemtl Material.001
s off
f 3/1/1 2/2/1 1/3/1
f 7/4/2 4/5/2 3/6/2
f 5/7/3 8/8/3 7/9/3
f 1/10/4 6/11/4 5/12/4
f 1/13/5 7/14/5 3/15/5
f 6/16/6 4/17/6 8/18/6
f 3/1/1 4/19/1 2/2/1
f 7/4/2 8/20/2 4/5/2
f 5/7/3 6/21/3 8/8/3
f 1/10/4 2/22/4 6/11/4
f 1/13/5 5/23/5 7/14/5
f 6/16/6 2/24/6 4/17/6
